<?xml version="1.0" standalone="no"?>
<!DOCTYPE svg PUBLIC "-//W3C//DTD SVG 20010904//EN"
 "http://www.w3.org/TR/2001/REC-SVG-20010904/DTD/svg10.dtd">
<svg version="1.0" xmlns="http://www.w3.org/2000/svg"
 width="63.000000pt" height="32.000000pt" viewBox="0 0 63.000000 32.000000"
 preserveAspectRatio="xMidYMid meet">
<metadata>
Created by potrace 1.10, written by Peter Selinger 2001-2011
</metadata>
<g transform="translate(0.000000,32.000000) scale(0.100000,-0.100000)"
fill="#000000" stroke="none">
<path d="M290 245 c0 -8 9 -15 20 -15 11 0 20 7 20 15 0 8 -9 15 -20 15 -11 0
-20 -7 -20 -15z"/>
<path d="M120 235 c0 -9 9 -15 25 -15 16 0 25 6 25 15 0 9 -9 15 -25 15 -16 0
-25 -6 -25 -15z"/>
<path d="M340 225 c0 -8 9 -15 20 -15 11 0 20 7 20 15 0 8 -9 15 -20 15 -11 0
-20 -7 -20 -15z"/>
<path d="M504 218 c3 -13 6 -33 6 -45 0 -14 6 -23 15 -23 10 0 15 10 15 29 0
16 3 36 6 45 5 12 0 16 -21 16 -23 0 -26 -3 -21 -22z"/>
<path d="M187 213 c-15 -14 -6 -23 23 -23 17 0 30 -4 30 -10 0 -5 -13 -10 -29
-10 -30 0 -45 -19 -35 -44 4 -10 21 -15 55 -14 l49 0 0 38 c0 22 -7 45 -16 54
-15 16 -65 22 -77 9z m53 -68 c0 -8 -7 -15 -15 -15 -8 0 -15 7 -15 15 0 8 7
15 15 15 8 0 15 -7 15 -15z"/>
<path d="M290 160 c0 -36 -4 -60 -11 -60 -6 0 -9 -6 -6 -12 5 -15 39 -11 49 5
4 7 8 38 8 70 0 50 -2 57 -20 57 -18 0 -20 -7 -20 -60z"/>
<path d="M129 203 c0 -5 0 -29 1 -55 1 -29 -3 -48 -9 -48 -6 0 -11 -7 -11 -16
0 -10 7 -14 23 -12 20 3 22 9 25 71 2 55 0 67 -13 67 -8 0 -15 -3 -16 -7z"/>
<path d="M400 195 c0 -10 10 -15 30 -15 17 0 30 -5 30 -11 0 -5 -5 -7 -11 -4
-5 4 -21 4 -35 1 -20 -5 -25 -12 -22 -34 3 -25 7 -27 51 -28 l47 -2 0 42 c0
23 -5 47 -12 54 -18 18 -78 16 -78 -3z m60 -54 c0 -14 -18 -23 -30 -16 -6 4
-8 11 -5 16 8 12 35 12 35 0z"/>
<path d="M340 146 c0 -30 -4 -58 -10 -61 -16 -10 -11 -25 8 -25 31 0 42 22 42
82 0 51 -2 58 -20 58 -18 0 -20 -7 -20 -54z"/>
<path d="M510 118 c0 -10 7 -18 15 -18 8 0 15 8 15 18 0 10 -7 19 -15 19 -8 0
-15 -9 -15 -19z"/>
</g>
</svg>
